<?xml version="1.0" encoding="UTF-8"?>
<svg id="Layer_2" data-name="Layer 2" xmlns="http://www.w3.org/2000/svg" viewBox="0 0 175.19 51.11">
  <defs>
    <style>
      .cls-1 {
        fill: #cba673;
      }

      .cls-1, .cls-2 {
        stroke-width: 0px;
      }

      .cls-2 {
        fill: #fff;
      }
    </style>
  </defs>
  <g id="Layer_1-2" data-name="Layer 1">
    <g>
      <rect class="cls-1" width="30.75" height="4.66"/>
      <rect class="cls-1" x="5.87" y="6.99" width="19.01" height="4.66"/>
      <rect class="cls-1" y="40.75" width="30.75" height="4.66" transform="translate(30.75 86.15) rotate(180)"/>
      <rect class="cls-1" x="5.87" y="33.76" width="19.01" height="4.66" transform="translate(30.75 72.17) rotate(180)"/>
      <path class="cls-1" d="M4.38,24.5c0-6.77,5.38-12.85,12.73-12.85,5.38,0,9.26,3.97,9.26,9.29,0,6.8-5.35,12.82-12.7,12.82-5.41,0-9.29-3.87-9.29-9.26ZM22.37,20.01c0-4.77-1.94-7.72-5.26-7.72-5.63,0-8.67,7.6-8.67,13.1,0,4.83,1.91,7.72,5.23,7.72,5.63,0,8.7-7.53,8.7-13.1Z"/>
      <g>
        <path class="cls-2" d="M44.28,9.95C44.28,4.22,48.56.03,54.62.03s10.34,4.2,10.34,9.93-4.28,9.9-10.34,9.9-10.34-4.17-10.34-9.9ZM59.83,9.95c0-5.65-1.89-9.21-5.21-9.21s-5.21,3.57-5.21,9.21,1.89,9.19,5.21,9.19,5.21-3.54,5.21-9.19Z"/>
        <path class="cls-2" d="M65.94,19.06c2.41-.16,3.04-.8,3.04-3.07V3.87c0-2.25-.6-2.88-3.04-3.04v-.41h10.67v.41c-2.44.16-3.04.8-3.04,3.04v15h1.15c3.67,0,5.9-1.29,6.69-7.54h.44v8.14h-15.91v-.41Z"/>
        <path class="cls-2" d="M86.02,3.89c0-2.25-.66-2.91-3.04-3.07v-.41h9.41c7.16,0,11.55,3.78,11.55,9.54s-4.39,9.52-11.55,9.52h-9.41v-.41c2.39-.16,3.04-.82,3.04-3.07V3.89ZM90.6,18.87h1.15c4.66,0,7.05-3.26,7.05-8.91s-2.39-8.94-7.05-8.94h-1.15v17.85Z"/>
        <path class="cls-2" d="M128.47.82c-2.41.16-3.04.82-3.04,3.07v12.09c0,2.25.66,2.91,3.04,3.07v.41h-10.67v-.41c2.44-.19,3.04-.82,3.04-3.07v-5.98h-8.36v5.98c0,2.25.63,2.91,3.04,3.07v.41h-10.67v-.41c2.39-.16,3.04-.82,3.04-3.07V3.89c0-2.25-.63-2.91-3.04-3.07v-.41h10.67v.41c-2.41.19-3.04.82-3.04,3.07v5.43h8.36V3.89c0-2.25-.63-2.88-3.04-3.07v-.41h10.67v.41Z"/>
        <path class="cls-2" d="M145.93,15.58c1.04,2.33,1.51,3.13,3.48,3.48v.41h-10.91v-.41c2.91-.41,3.29-1.37,2.47-3.26l-1.01-2.33h-5.9l-.82,1.95c-1.07,2.55-.49,3.26,3.07,3.65v.41h-7.6v-.41c2.19-.3,2.74-1.26,3.73-3.65l6.47-15.41h.11l6.91,15.58ZM134.33,12.78h5.32l-2.63-6.12h-.11l-2.58,6.12Z"/>
        <path class="cls-2" d="M160.79,19.85l-7.24-15.36h-.11v11.49c0,2.28.63,2.91,3.04,3.07v.41h-6.86v-.41c2.41-.16,3.04-.8,3.04-3.07V3.89c0-2.28-.63-2.91-3.04-3.07v-.41h6.99l6.12,12.97h.11l5.51-12.97h6.83v.41c-2.39.16-3.04.8-3.04,3.07v12.09c0,2.25.63,2.91,3.04,3.07v.41h-10.67v-.41c2.41-.16,3.04-.82,3.04-3.07V4.44h-.11l-6.55,15.41h-.11Z"/>
      </g>
      <g>
        <path class="cls-2" d="M45.9,25.88v18.04h10.06v1.48h-11.68v-19.52h1.62Z"/>
        <path class="cls-2" d="M69.23,38.3v.55h-11.11c.07,1.76.53,3.1,1.38,4.04.85.94,2.02,1.41,3.5,1.41,1.13,0,2.07-.31,2.82-.92.75-.61,1.24-1.45,1.48-2.51h1.62c-.33,1.5-1.01,2.68-2.06,3.55-1.04.87-2.35,1.3-3.92,1.3-1.97,0-3.54-.68-4.69-2.03-1.15-1.35-1.73-3.14-1.73-5.37s.58-4,1.73-5.37c1.13-1.35,2.68-2.03,4.63-2.03s3.55.69,4.66,2.08c1.11,1.39,1.67,3.15,1.67,5.29ZM62.9,32.35c-1.35,0-2.45.45-3.29,1.34-.84.9-1.33,2.15-1.45,3.76h9.41c-.09-1.55-.54-2.79-1.36-3.72-.81-.92-1.92-1.39-3.3-1.39Z"/>
        <path class="cls-2" d="M82.64,33.89v-2.63h1.48v13.6c0,2.01-.53,3.56-1.59,4.63-1.06,1.08-2.62,1.62-4.69,1.62-1.68,0-3.01-.39-3.99-1.18-.98-.79-1.54-1.86-1.69-3.24h1.54c.31,2.07,1.69,3.1,4.14,3.1,3.14,0,4.72-1.65,4.72-4.94v-1.92c-1.13,1.86-2.81,2.8-5.02,2.8-1.94,0-3.47-.68-4.61-2.03-1.13-1.35-1.7-3.14-1.7-5.37s.57-4.02,1.7-5.37c1.13-1.35,2.67-2.03,4.61-2.03,2.32,0,4.02.99,5.1,2.96ZM72.85,38.33c0,1.81.44,3.26,1.32,4.36.88,1.1,2.07,1.65,3.56,1.65s2.69-.54,3.56-1.62c.88-1.06,1.32-2.52,1.32-4.39s-.44-3.33-1.32-4.39c-.88-1.08-2.07-1.62-3.56-1.62s-2.69.55-3.56,1.65c-.88,1.1-1.32,2.55-1.32,4.36Z"/>
        <path class="cls-2" d="M98.96,44.14h.74v1.26c-.31.05-.65.08-1.01.08-.77,0-1.33-.19-1.67-.56-.35-.37-.52-.96-.52-1.74v-.19c-.95,1.83-2.66,2.74-5.13,2.74-1.52,0-2.69-.36-3.52-1.08-.83-.72-1.25-1.71-1.25-2.98,0-2.45,1.68-3.88,5.05-4.28l2.19-.25c.97-.13,1.65-.37,2.03-.71.38-.35.58-.88.58-1.59,0-1.72-1.22-2.58-3.65-2.58-1.41,0-2.43.25-3.06.74s-.97,1.33-1.03,2.5h-1.51c.09-3.05,1.96-4.58,5.59-4.58,1.72,0,3.01.34,3.87,1.03.86.69,1.29,1.65,1.29,2.89v8.28c0,.68.34,1.01,1.01,1.01ZM91.45,44.42c1.41,0,2.6-.4,3.56-1.21.95-.79,1.43-1.97,1.43-3.54v-2.14c-.46.46-1.24.75-2.36.88l-2.19.27c-1.3.16-2.23.48-2.81.95-.58.47-.86,1.14-.86,2.02s.27,1.54.82,2.03c.55.49,1.35.74,2.41.74Z"/>
        <path class="cls-2" d="M102.99,45.4h-1.56v-19.52h1.56v19.52Z"/>
      </g>
      <path class="cls-2" d="M108.59,45.34c0,1.16-.84,2-1.98,2s-1.98-.84-1.98-2,.84-2,1.98-2,1.98.84,1.98,2ZM108.41,45.34c0-1.07-.76-1.84-1.81-1.84s-1.81.77-1.81,1.84.76,1.84,1.81,1.84,1.81-.77,1.81-1.84ZM106.98,45.29l.86,1.04v.02h-.64l-.77-1.02h-.01v.61c0,.24.09.33.29.35v.06h-1.1v-.06c.2-.02.29-.1.29-.35v-1.2c0-.24-.09-.33-.29-.35v-.06h1.09c.48,0,.81.17.81.49,0,.23-.19.4-.52.48ZM106.41,45.27h.12c.28,0,.44-.17.44-.45,0-.3-.21-.39-.42-.39h-.14v.84Z"/>
    </g>
  </g>
</svg>